<svg width="8" height="10" viewBox="0 0 8 10" fill="none" xmlns="http://www.w3.org/2000/svg">
<path fill-rule="evenodd" clip-rule="evenodd" d="M4.00003 0.800049C4.24855 0.800049 4.45003 1.00152 4.45003 1.25005L4.45003 7.6328L6.82565 5.13815C6.99791 4.959 7.28278 4.95342 7.46192 5.12567C7.64107 5.29793 7.64666 5.5828 7.4744 5.76195L4.3244 9.06195C4.23956 9.15018 4.12243 9.20005 4.00003 9.20005C3.87762 9.20005 3.76049 9.15018 3.67565 9.06195L0.52565 5.76195C0.353393 5.5828 0.358979 5.29793 0.538126 5.12567C0.717273 4.95342 1.00214 4.959 1.1744 5.13815L3.55003 7.6328L3.55003 1.25005C3.55003 1.00152 3.7515 0.800049 4.00003 0.800049Z" fill="#0092C0"/>
</svg>
