<svg width="8" height="10" viewBox="0 0 8 10" fill="none" xmlns="http://www.w3.org/2000/svg">
<path d="M2.115 4.885V4.115H2.885V4.885H2.115ZM5.115 4.885V4.115H5.885V4.885H5.115ZM0 9.5V6.2115H0.5V4C0.5 3.514 0.591333 3.05933 0.774 2.636C0.956667 2.21267 1.20667 1.84217 1.524 1.5245C1.84067 1.2065 2.21233 0.956333 2.639 0.774C3.06533 0.591333 3.519 0.5 4 0.5C4.486 0.5 4.94067 0.591333 5.364 0.774C5.78733 0.956667 6.15783 1.20683 6.4755 1.5245C6.79317 1.84217 7.04333 2.21267 7.226 2.636C7.40867 3.05933 7.5 3.514 7.5 4V6.2115H8V9.5H0ZM0.5 9H1.75V6.7115H0.5V9ZM2.25 9H3.75V6.7115H2.25V9ZM1 6.2115H3.75V1.0185C3.04 1.05817 2.40417 1.355 1.8425 1.909C1.28083 2.46333 1 3.16033 1 4V6.2115ZM4.25 6.2115H7V4C7 3.16 6.71933 2.463 6.158 1.909C5.596 1.355 4.96 1.05817 4.25 1.0185V6.2115ZM4.25 9H5.75V6.7115H4.25V9ZM6.25 9H7.5V6.7115H6.25V9Z" fill="#667085"/>
</svg>
