<svg width="10" height="10" viewBox="0 0 10 10" fill="none" xmlns="http://www.w3.org/2000/svg">
<path d="M4.75 9.75V7.329L2.875 9.179L2.521 8.825L4.75 6.596V5.25H3.404L1.175 7.479L0.821 7.125L2.671 5.25H0.25V4.75H2.671L0.821 2.875L1.175 2.521L3.404 4.75H4.75V3.404L2.521 1.175L2.875 0.821L4.75 2.671V0.25H5.25V2.671L7.125 0.821L7.479 1.175L5.25 3.404V4.75H6.596L8.825 2.521L9.179 2.875L7.329 4.75H9.75V5.25H7.329L9.179 7.125L8.825 7.479L6.596 5.25H5.25V6.596L7.479 8.825L7.125 9.179L5.25 7.329V9.75H4.75Z" fill="#667085"/>
</svg>
