<svg width="8" height="12" viewBox="0 0 8 12" fill="none" xmlns="http://www.w3.org/2000/svg">
<path d="M0.749752 5.71651C0.749752 5.9371 0.831688 6.12618 1.00816 6.29006L5.9117 11.0927C6.05036 11.2314 6.22683 11.307 6.43482 11.307C6.8508 11.307 7.18485 10.9793 7.18485 10.557C7.18485 10.349 7.09661 10.1662 6.95795 10.0213L2.53973 5.71651L6.95795 1.41174C7.09661 1.26677 7.18485 1.07769 7.18485 0.876003C7.18485 0.453719 6.8508 0.125977 6.43482 0.125977C6.22683 0.125977 6.05036 0.201609 5.9117 0.34027L1.00816 5.13665C0.831688 5.30683 0.749752 5.49591 0.749752 5.71651Z" fill="#020202"/>
</svg>
