<svg width="31" height="28" viewBox="0 0 31 28" fill="none" xmlns="http://www.w3.org/2000/svg">
<path d="M13.0713 6.48292L13.0712 6.48273C12.1822 5.57791 10.9805 5.07297 9.73147 5.07297C8.48249 5.07297 7.28093 5.57783 6.392 6.48251L13.0713 6.48292ZM13.0713 6.48292L14.751 8.19165L15.4642 8.91712M13.0713 6.48292L15.4642 8.91712M15.4642 8.91712L16.1773 8.19165M15.4642 8.91712L16.1773 8.19165M16.1773 8.19165L17.857 6.48292L17.8632 6.47658M16.1773 8.19165L17.8632 6.47658M17.8632 6.47658L17.8693 6.47012M17.8632 6.47658L17.8693 6.47012M17.8693 6.47012C18.3068 6.00892 18.8292 5.64208 19.4054 5.39007C19.9815 5.13809 20.6005 5.00572 21.2263 5.00018C21.8522 4.99464 22.4733 5.11604 23.0535 5.35776C23.6339 5.59949 24.1623 5.95698 24.6075 6.41027C25.0527 6.86361 25.4058 7.40369 25.6452 7.99946C25.8846 8.59526 26.0053 9.23425 25.9998 9.87898C25.9943 10.5237 25.8627 11.1604 25.6132 11.7518C25.3637 12.3432 25.0016 12.8768 24.5487 13.3221L24.5425 13.3282M17.8693 6.47012L24.5425 13.3282M24.5425 13.3282L24.5364 13.3345M24.5425 13.3282L24.5364 13.3345M24.5364 13.3345L15.4642 22.5728M24.5364 13.3345L15.4642 22.5728M15.4642 22.5728L6.392 13.3345C6.39198 13.3345 6.39196 13.3345 6.39195 13.3345C5.50269 12.4288 5 11.1968 5 9.90852C5 8.62033 5.50264 7.38842 6.39179 6.48273L15.4642 22.5728Z" stroke="#484848" stroke-width="2"/>
</svg>
