<svg width="6" height="8" viewBox="0 0 6 8" fill="none" xmlns="http://www.w3.org/2000/svg">
<path d="M3.4465 7.93148C3.42317 7.95281 3.39733 7.96781 3.369 7.97648C3.34033 7.98581 3.31033 7.99048 3.279 7.99048C3.24767 7.99048 3.21467 7.98548 3.18 7.97548C3.14533 7.96548 3.11583 7.94831 3.0915 7.92398C2.82683 7.62765 2.618 7.30865 2.465 6.96698C2.312 6.62531 2.2355 6.26248 2.2355 5.87848C2.2355 5.59981 2.275 5.30731 2.354 5.00098C2.433 4.69465 2.57533 4.29631 2.781 3.80598C2.95333 3.36265 3.077 3.01165 3.152 2.75298C3.227 2.49365 3.2645 2.25365 3.2645 2.03298C3.2645 1.74431 3.202 1.46898 3.077 1.20698C2.952 0.944979 2.75617 0.685979 2.4895 0.429979C2.46617 0.404645 2.44767 0.374812 2.434 0.340479C2.42033 0.306145 2.4135 0.271978 2.4135 0.237978C2.4135 0.209645 2.418 0.181312 2.427 0.152979C2.436 0.124645 2.451 0.0981451 2.472 0.0734785C2.49767 0.0491451 2.527 0.0293118 2.56 0.0139785C2.59333 -0.00135485 2.6275 -0.0090214 2.6625 -0.0090214C2.6975 -0.0090214 2.72867 -0.00185474 2.756 0.0124786C2.78333 0.0268119 2.80833 0.0461451 2.831 0.0704784C3.11433 0.341812 3.34067 0.642479 3.51 0.972479C3.67933 1.30248 3.76417 1.65515 3.7645 2.03048C3.7645 2.29315 3.72583 2.56898 3.6485 2.85798C3.57083 3.14665 3.43617 3.52365 3.2445 3.98898C3.04883 4.45698 2.91517 4.82748 2.8435 5.10048C2.7715 5.37381 2.7355 5.63115 2.7355 5.87248C2.7355 6.17548 2.79433 6.46765 2.912 6.74898C3.02967 7.03031 3.2135 7.30531 3.4635 7.57398C3.48483 7.59898 3.50183 7.62631 3.5145 7.65598C3.52717 7.68565 3.5335 7.71748 3.5335 7.75148C3.5335 7.78548 3.52583 7.81765 3.5105 7.84798C3.49517 7.87831 3.47383 7.90581 3.4465 7.93148ZM5.682 7.93048C5.65867 7.95281 5.63283 7.97015 5.6045 7.98248C5.57617 7.99481 5.54467 8.00065 5.51 7.99998C5.47533 7.99931 5.442 7.99248 5.41 7.97948C5.378 7.96648 5.35033 7.94798 5.327 7.92398C5.06233 7.63398 4.85183 7.31715 4.6955 6.97348C4.53917 6.62981 4.46117 6.26815 4.4615 5.88848C4.4615 5.61348 4.5025 5.31965 4.5845 5.00698C4.6665 4.69431 4.8105 4.29398 5.0165 3.80598C5.19517 3.35665 5.3205 3.00581 5.3925 2.75348C5.4645 2.50115 5.50033 2.26565 5.5 2.04698C5.5 1.75131 5.4375 1.47098 5.3125 1.20598C5.1875 0.940645 4.99167 0.681979 4.725 0.429979C4.70067 0.403645 4.68233 0.374145 4.67 0.341479C4.658 0.308812 4.652 0.275145 4.652 0.240479C4.652 0.210479 4.656 0.183312 4.664 0.158978C4.672 0.134645 4.68683 0.109478 4.7085 0.0834785C4.73417 0.0578118 4.76417 0.0374786 4.7985 0.0224786C4.83283 0.00747858 4.8665 -2.14567e-05 4.8995 -2.14567e-05C4.9325 -2.14567e-05 4.9625 0.00631193 4.9895 0.0189786C5.0165 0.0316453 5.04217 0.0488118 5.0665 0.0704784C5.34983 0.341478 5.57617 0.641979 5.7455 0.971979C5.91483 1.30198 5.99967 1.65465 6 2.02998C6 2.29265 5.961 2.56681 5.883 2.85248C5.80533 3.13815 5.66783 3.52098 5.4705 4.00098C5.27483 4.47531 5.14117 4.84581 5.0695 5.11248C4.99783 5.37915 4.96183 5.63198 4.9615 5.87098C4.9615 6.16998 5.024 6.46065 5.149 6.74298C5.274 7.02531 5.4615 7.30615 5.7115 7.58548C5.73083 7.60981 5.74533 7.63631 5.755 7.66498C5.76467 7.69331 5.7695 7.72165 5.7695 7.74998C5.7695 7.78265 5.76167 7.81515 5.746 7.84748C5.73067 7.87981 5.70933 7.90781 5.682 7.93048ZM1.211 7.92998C1.18767 7.95231 1.16183 7.96965 1.1335 7.98198C1.10517 7.99431 1.0735 8.00031 1.0385 7.99998C1.0035 7.99965 0.970333 7.99281 0.939 7.97948C0.907667 7.96615 0.88 7.94765 0.856 7.92398C0.591 7.63398 0.382167 7.31715 0.2295 6.97348C0.0765001 6.62981 0 6.26815 0 5.88848C0 5.61348 0.0395 5.31965 0.1185 5.00698C0.1975 4.69431 0.339833 4.29398 0.5455 3.80598C0.724167 3.35665 0.849333 3.00581 0.921 2.75348C0.993 2.50115 1.029 2.26565 1.029 2.04698C1.029 1.75131 0.9665 1.47098 0.8415 1.20598C0.7165 0.940645 0.520667 0.681979 0.254 0.429979C0.226667 0.403645 0.207167 0.374145 0.1955 0.341479C0.183833 0.308812 0.178 0.276145 0.178 0.243479C0.178 0.210812 0.1825 0.180478 0.1915 0.152478C0.2005 0.124478 0.2155 0.0979785 0.2365 0.0729785C0.262167 0.0486452 0.291833 0.0288119 0.3255 0.0134785C0.359167 -0.00185481 0.391667 -0.00952148 0.423 -0.00952148C0.454333 -0.00952148 0.484667 -0.00235471 0.514 0.0119786C0.543333 0.026312 0.5705 0.0458118 0.5955 0.0704784C0.878833 0.341478 1.10517 0.641979 1.2745 0.971979C1.44383 1.30198 1.52867 1.65615 1.529 2.03448C1.529 2.28781 1.492 2.55731 1.418 2.84298C1.34467 3.12831 1.20933 3.51148 1.012 3.99248C0.822667 4.45781 0.6905 4.82698 0.6155 5.09998C0.5405 5.37298 0.503 5.63031 0.503 5.87198C0.503 6.17665 0.563333 6.47065 0.684 6.75398C0.804667 7.03731 0.990167 7.31448 1.2405 7.58548C1.2595 7.60981 1.27383 7.63631 1.2835 7.66498C1.2935 7.69331 1.2985 7.72165 1.2985 7.74998C1.2985 7.78265 1.29067 7.81515 1.275 7.84748C1.25967 7.87981 1.23833 7.90731 1.211 7.92998Z" fill="#667085"/>
</svg>
