<svg width="12" height="9" viewBox="0 0 12 9" fill="none" xmlns="http://www.w3.org/2000/svg">
<path d="M10.5 2.5V1.5C10.5 0.675 9.825 0 9 0H7C6.615 0 6.265 0.15 6 0.39C5.735 0.15 5.385 0 5 0H3C2.175 0 1.5 0.675 1.5 1.5V2.5C0.675 2.5 0 3.175 0 4V6.5C0 7.325 0.675 8 1.5 8V9H2.5V8H9.5V9H10.5V8C11.325 8 12 7.325 12 6.5V4C12 3.175 11.325 2.5 10.5 2.5ZM7 1H9C9.275 1 9.5 1.225 9.5 1.5V2.89C9.195 3.165 9 3.56 9 4V5H6.5V1.5C6.5 1.225 6.725 1 7 1ZM2.5 1.5C2.5 1.225 2.725 1 3 1H5C5.275 1 5.5 1.225 5.5 1.5V5H3V4C3 3.56 2.805 3.165 2.5 2.89V1.5ZM11 6.5C11 6.775 10.775 7 10.5 7H1.5C1.225 7 1 6.775 1 6.5V4C1 3.725 1.225 3.5 1.5 3.5C1.775 3.5 2 3.725 2 4V6H10V4C10 3.725 10.225 3.5 10.5 3.5C10.775 3.5 11 3.725 11 4V6.5Z" fill="#667085"/>
</svg>
