<svg width="16" height="18" viewBox="0 0 16 18" fill="none" xmlns="http://www.w3.org/2000/svg">
<path d="M14.0909 7.54545C14.0909 12.6364 7.54545 17 7.54545 17C7.54545 17 1 12.6364 1 7.54545C1 5.80949 1.68961 4.14463 2.91712 2.91712C4.14463 1.68961 5.80949 1 7.54545 1C9.28142 1 10.9463 1.68961 12.1738 2.91712C13.4013 4.14463 14.0909 5.80949 14.0909 7.54545Z" stroke="#8B8B8B" stroke-width="2" stroke-linecap="round" stroke-linejoin="round"/>
<path d="M7.54545 9.72727C8.75044 9.72727 9.72727 8.75044 9.72727 7.54545C9.72727 6.34047 8.75044 5.36364 7.54545 5.36364C6.34047 5.36364 5.36364 6.34047 5.36364 7.54545C5.36364 8.75044 6.34047 9.72727 7.54545 9.72727Z" stroke="#8B8B8B" stroke-width="2" stroke-linecap="round" stroke-linejoin="round"/>
</svg>
