<svg width="15" height="20" viewBox="0 0 15 20" fill="none" xmlns="http://www.w3.org/2000/svg">
<path d="M7.22188 9.525C6.53782 9.525 5.88178 9.27478 5.39808 8.82938C4.91438 8.38398 4.64264 7.77989 4.64264 7.15C4.64264 6.52011 4.91438 5.91602 5.39808 5.47062C5.88178 5.02522 6.53782 4.775 7.22188 4.775C7.90594 4.775 8.56198 5.02522 9.04568 5.47062C9.52938 5.91602 9.80112 6.52011 9.80112 7.15C9.80112 7.46189 9.73441 7.77073 9.60479 8.05887C9.47517 8.34702 9.28519 8.60884 9.04568 8.82938C8.80618 9.04992 8.52184 9.22486 8.20891 9.34421C7.89599 9.46357 7.56059 9.525 7.22188 9.525ZM7.22188 0.5C5.30652 0.5 3.46961 1.20062 2.11524 2.44774C0.760874 3.69486 0 5.38631 0 7.15C0 12.1375 7.22188 19.5 7.22188 19.5C7.22188 19.5 14.4438 12.1375 14.4438 7.15C14.4438 5.38631 13.6829 3.69486 12.3285 2.44774C10.9742 1.20062 9.13724 0.5 7.22188 0.5Z" fill="#484848"/>
</svg>
