<svg width="8" height="10" viewBox="0 0 8 10" fill="none" xmlns="http://www.w3.org/2000/svg">
<path d="M2.25102 1.40001H1.30002C1.22046 1.40001 1.14415 1.43162 1.08789 1.48788C1.03163 1.54414 1.00002 1.62045 1.00002 1.70001V8.90001C1.00002 8.97958 1.03163 9.05588 1.08789 9.11214C1.14415 9.16841 1.22046 9.20001 1.30002 9.20001H6.70002C6.77959 9.20001 6.8559 9.16841 6.91216 9.11214C6.96842 9.05588 7.00002 8.97958 7.00002 8.90001V1.70001C7.00002 1.62045 6.96842 1.54414 6.91216 1.48788C6.8559 1.43162 6.77959 1.40001 6.70002 1.40001H5.74902C5.68696 1.57556 5.57198 1.72754 5.41992 1.835C5.26786 1.94246 5.08622 2.00011 4.90002 2.00001H3.10002C2.91383 2.00011 2.73219 1.94246 2.58013 1.835C2.42807 1.72754 2.31309 1.57556 2.25102 1.40001ZM5.74902 0.800012H6.70002C6.93872 0.800012 7.16764 0.894834 7.33642 1.06362C7.5052 1.2324 7.60002 1.46132 7.60002 1.70001V8.90001C7.60002 9.13871 7.5052 9.36763 7.33642 9.53641C7.16764 9.70519 6.93872 9.80001 6.70002 9.80001H1.30002C1.06133 9.80001 0.832411 9.70519 0.663628 9.53641C0.494845 9.36763 0.400024 9.13871 0.400024 8.90001V1.70001C0.400024 1.46132 0.494845 1.2324 0.663628 1.06362C0.832411 0.894834 1.06133 0.800012 1.30002 0.800012H2.25102C2.31309 0.624465 2.42807 0.472489 2.58013 0.365029C2.73219 0.257569 2.91383 0.199915 3.10002 0.200012H4.90002C5.08622 0.199915 5.26786 0.257569 5.41992 0.365029C5.57198 0.472489 5.68696 0.624465 5.74902 0.800012ZM2.80002 1.10001C2.80002 1.17958 2.83163 1.25588 2.88789 1.31214C2.94415 1.36841 3.02046 1.40001 3.10002 1.40001H4.90002C4.97959 1.40001 5.0559 1.36841 5.11216 1.31214C5.16842 1.25588 5.20002 1.17958 5.20002 1.10001C5.20002 1.02045 5.16842 0.944141 5.11216 0.88788C5.0559 0.83162 4.97959 0.800012 4.90002 0.800012H3.10002C3.02046 0.800012 2.94415 0.83162 2.88789 0.88788C2.83163 0.944141 2.80002 1.02045 2.80002 1.10001ZM3.40002 3.80001C3.40002 3.64088 3.46324 3.48827 3.57576 3.37575C3.68828 3.26323 3.84089 3.20001 4.00002 3.20001C4.15915 3.20001 4.31177 3.26323 4.42429 3.37575C4.53681 3.48827 4.60002 3.64088 4.60002 3.80001C4.60002 3.95914 4.53681 4.11175 4.42429 4.22428C4.31177 4.3368 4.15915 4.40001 4.00002 4.40001C3.84089 4.40001 3.68828 4.3368 3.57576 4.22428C3.46324 4.11175 3.40002 3.95914 3.40002 3.80001ZM4.00002 2.60001C3.68176 2.60001 3.37654 2.72644 3.1515 2.95148C2.92645 3.17653 2.80002 3.48175 2.80002 3.80001C2.80002 4.11827 2.92645 4.4235 3.1515 4.64854C3.37654 4.87358 3.68176 5.00001 4.00002 5.00001C4.31828 5.00001 4.62351 4.87358 4.84855 4.64854C5.0736 4.4235 5.20002 4.11827 5.20002 3.80001C5.20002 3.48175 5.0736 3.17653 4.84855 2.95148C4.62351 2.72644 4.31828 2.60001 4.00002 2.60001ZM2.51562 6.31761C2.51429 6.30373 2.51619 6.28974 2.52119 6.27672C2.52619 6.26371 2.53414 6.25203 2.54442 6.24261C2.57266 6.21508 2.61059 6.19978 2.65002 6.20001H5.35002C5.38946 6.19978 5.42739 6.21508 5.45562 6.24261C5.4658 6.25209 5.47364 6.26379 5.47853 6.2768C5.48342 6.28981 5.48524 6.30378 5.48382 6.31761C5.45502 6.59061 5.37642 6.84921 5.18502 7.04121C4.99782 7.22901 4.65582 7.40001 4.00002 7.40001C3.34422 7.40001 3.00222 7.22901 2.81502 7.04121C2.62302 6.84921 2.54502 6.59061 2.51562 6.31761ZM2.65002 5.60001C2.25162 5.60001 1.87122 5.93001 1.91922 6.38121C1.95522 6.71721 2.06022 7.13361 2.38962 7.46481C2.72382 7.79961 3.24042 8.00001 4.00002 8.00001C4.75962 8.00001 5.27622 7.79961 5.61042 7.46481C5.94042 7.13361 6.04542 6.71661 6.08082 6.38121C6.12882 5.93001 5.74902 5.60001 5.35002 5.60001H2.65002Z" fill="#667085"/>
</svg>
