<svg width="12" height="11" viewBox="0 0 12 11" fill="none" xmlns="http://www.w3.org/2000/svg">
<path d="M9.21797 2.78115L7.84059 0.791494C7.73851 0.644336 7.60282 0.523625 7.44478 0.439364C7.28673 0.355103 7.11089 0.309718 6.9318 0.30697L4.31789 0.26947H4.3125C2.96299 0.26947 1.92757 0.495197 1.2607 1.59683C0.639844 2.62227 0.375 4.36904 0.375 7.43748V7.81248H1.2318L0.68025 10.625H1.44455L1.9961 7.81248H2.25C2.86246 7.81794 3.4525 7.58229 3.89269 7.15641C4.29063 6.77565 4.57767 6.25473 4.72282 5.64999L4.72413 5.64456L5.36733 2.56248H4.60116L3.99227 5.48017C3.80684 6.2461 3.25233 7.06248 2.25 7.06248H1.12641C1.14677 4.40781 1.38848 2.83391 1.9023 1.98512C2.33355 1.27262 2.96391 1.0197 4.3099 1.01935L6.92102 1.05685C6.98072 1.05776 7.03934 1.07289 7.09202 1.10097C7.1447 1.12906 7.18993 1.1693 7.22395 1.21836L8.78203 3.46881L10.875 3.81765V4.21513L10.526 6.07656C10.423 6.62595 10.2469 6.9027 9.52477 6.98945L6.56447 7.49591L6.5449 10.625H7.2949L7.31053 8.12905L9.62381 7.73295C10.1479 7.66852 10.5345 7.49963 10.8057 7.21679C11.0375 6.97496 11.1785 6.66601 11.2631 6.21479L11.625 4.28483V3.18231L9.21797 2.78115Z" fill="#667085"/>
</svg>
