<svg width="10" height="14" viewBox="0 0 10 14" fill="none" xmlns="http://www.w3.org/2000/svg">
<path d="M0 11H7.5V13.25H0V11ZM9.25 11H10V13.25H9.25V11ZM8 11H8.75V13.25H8V11ZM8.425 4.7975C8.735 4.34 8.925 3.71 8.925 3.0125C8.925 1.625 8.175 0.5 7.25 0.5V1.625C7.75 1.625 8.175 2.2475 8.175 3.0125C8.175 3.7775 7.75 4.4 7.25 4.4V5.525C8.37 5.525 9.25 6.8975 9.25 8.5775V10.25H10V8.57C10 6.905 9.36 5.465 8.425 4.7975ZM7.015 6.65H6.25C5.75 6.65 5.325 5.915 5.325 5.15C5.325 4.385 5.75 3.8375 6.25 3.8375V2.7125C5.80576 2.7125 5.37972 2.97721 5.0656 3.44839C4.75147 3.91958 4.575 4.55864 4.575 5.225C4.575 5.89136 4.75147 6.53042 5.0656 7.00161C5.37972 7.47279 5.80576 7.7375 6.25 7.7375H7.015C7.54 7.7375 8 8.2925 8 9.275V10.25H8.75V9.02C8.75 7.6625 7.95 6.65 7.015 6.65Z" fill="#667085"/>
</svg>
