<svg width="12" height="8" viewBox="0 0 12 8" fill="none" xmlns="http://www.w3.org/2000/svg">
<path d="M1.74298 2.48247C1.82698 2.49281 1.91265 2.49864 1.99998 2.49997C2.39498 2.50447 2.76948 2.41097 2.99998 2.24997C3.23048 2.08997 3.60498 1.99647 3.99998 1.99997C4.39498 1.99647 4.76948 2.08997 4.99998 2.24997C5.23048 2.41097 5.60498 2.50447 5.99998 2.49997C6.39498 2.50447 6.76948 2.41097 6.99998 2.24997C7.23048 2.08997 7.60498 1.99647 7.99998 1.99997C8.39498 1.99647 8.76948 2.08997 8.99998 2.24997C9.23048 2.41097 9.60498 2.50447 9.99998 2.49997C10.0853 2.49931 10.1691 2.49364 10.2515 2.48297" stroke="#667085" stroke-width="2" stroke-linecap="round" stroke-linejoin="round"/>
<path d="M1.5 1L2.3605 6.1645C2.39944 6.39799 2.51995 6.6101 2.70059 6.76309C2.88123 6.91608 3.11028 7.00003 3.347 7H8.653C8.88972 7.00003 9.11877 6.91608 9.29941 6.76309C9.48005 6.6101 9.60056 6.39799 9.6395 6.1645L10.5 1" stroke="#667085" stroke-width="2" stroke-linecap="round" stroke-linejoin="round"/>
</svg>
