<svg width="207" height="57" viewBox="0 0 207 57" fill="none" xmlns="http://www.w3.org/2000/svg">
<path d="M0.176 44V0.789996H8.064V37.04H26.566V44H0.176ZM45.7042 44.696C42.4562 44.696 39.6142 43.9613 37.1782 42.492C34.7422 41.0227 32.8475 39.0313 31.4942 36.518C30.1409 34.0047 29.4642 31.2207 29.4642 28.166C29.4642 24.9953 30.1409 22.192 31.4942 19.756C32.8862 17.2813 34.7615 15.3287 37.1202 13.898C39.5175 12.4673 42.1855 11.752 45.1242 11.752C47.5989 11.752 49.7642 12.158 51.6202 12.97C53.5149 13.782 55.1195 14.9033 56.4342 16.334C57.7489 17.7647 58.7542 19.408 59.4502 21.264C60.1462 23.0813 60.4942 25.0533 60.4942 27.18C60.4942 27.7213 60.4555 28.282 60.3782 28.862C60.3395 29.442 60.2429 29.9447 60.0882 30.37H35.7282V24.57H55.7962L52.2002 27.296C52.5482 25.5173 52.4515 23.932 51.9102 22.54C51.4075 21.148 50.5569 20.046 49.3582 19.234C48.1982 18.422 46.7869 18.016 45.1242 18.016C43.5389 18.016 42.1275 18.422 40.8902 19.234C39.6529 20.0073 38.7055 21.1673 38.0482 22.714C37.4295 24.222 37.1975 26.0587 37.3522 28.224C37.1975 30.1573 37.4489 31.878 38.1062 33.386C38.8022 34.8553 39.8075 35.996 41.1222 36.808C42.4755 37.62 44.0222 38.026 45.7622 38.026C47.5022 38.026 48.9715 37.6587 50.1702 36.924C51.4075 36.1893 52.3742 35.2033 53.0702 33.966L59.2182 36.982C58.5995 38.49 57.6329 39.824 56.3182 40.984C55.0035 42.144 53.4375 43.0527 51.6202 43.71C49.8415 44.3673 47.8695 44.696 45.7042 44.696ZM77.9699 44.696C74.6059 44.696 71.6672 43.9033 69.1539 42.318C66.6792 40.694 64.9779 38.5093 64.0499 35.764L69.7339 33.038C70.5459 34.8167 71.6672 36.2087 73.0979 37.214C74.5672 38.2193 76.1912 38.722 77.9699 38.722C79.3619 38.722 80.4639 38.4127 81.2759 37.794C82.0879 37.1753 82.4939 36.3633 82.4939 35.358C82.4939 34.7393 82.3199 34.2367 81.9719 33.85C81.6625 33.4247 81.2179 33.0767 80.6379 32.806C80.0965 32.4967 79.4972 32.2453 78.8399 32.052L73.6779 30.602C71.0099 29.8287 68.9799 28.6493 67.5879 27.064C66.2345 25.4787 65.5579 23.6033 65.5579 21.438C65.5579 19.5047 66.0412 17.8227 67.0079 16.392C68.0132 14.9227 69.3859 13.782 71.1259 12.97C72.9045 12.158 74.9345 11.752 77.2159 11.752C80.1932 11.752 82.8225 12.4673 85.1039 13.898C87.3852 15.3287 89.0092 17.3393 89.9759 19.93L84.1759 22.656C83.6345 21.2253 82.7259 20.0847 81.4499 19.234C80.1739 18.3833 78.7432 17.958 77.1579 17.958C75.8819 17.958 74.8765 18.248 74.1419 18.828C73.4072 19.408 73.0399 20.162 73.0399 21.09C73.0399 21.67 73.1945 22.1727 73.5039 22.598C73.8132 23.0233 74.2385 23.3713 74.7799 23.642C75.3599 23.9127 76.0172 24.164 76.7519 24.396L81.7979 25.904C84.3885 26.6773 86.3799 27.8373 87.7719 29.384C89.2025 30.9307 89.9179 32.8253 89.9179 35.068C89.9179 36.9627 89.4152 38.6447 88.4099 40.114C87.4045 41.5447 86.0125 42.666 84.2339 43.478C82.4552 44.29 80.3672 44.696 77.9699 44.696ZM110.431 44.696C107.183 44.696 104.341 43.9613 101.905 42.492C99.4688 41.0227 97.5742 39.0313 96.2208 36.518C94.8675 34.0047 94.1908 31.2207 94.1908 28.166C94.1908 24.9953 94.8675 22.192 96.2208 19.756C97.6128 17.2813 99.4882 15.3287 101.847 13.898C104.244 12.4673 106.912 11.752 109.851 11.752C112.325 11.752 114.491 12.158 116.347 12.97C118.241 13.782 119.846 14.9033 121.161 16.334C122.475 17.7647 123.481 19.408 124.177 21.264C124.873 23.0813 125.221 25.0533 125.221 27.18C125.221 27.7213 125.182 28.282 125.105 28.862C125.066 29.442 124.969 29.9447 124.815 30.37H100.455V24.57H120.523L116.927 27.296C117.275 25.5173 117.178 23.932 116.637 22.54C116.134 21.148 115.283 20.046 114.085 19.234C112.925 18.422 111.513 18.016 109.851 18.016C108.265 18.016 106.854 18.422 105.617 19.234C104.379 20.0073 103.432 21.1673 102.775 22.714C102.156 24.222 101.924 26.0587 102.079 28.224C101.924 30.1573 102.175 31.878 102.833 33.386C103.529 34.8553 104.534 35.996 105.849 36.808C107.202 37.62 108.749 38.026 110.489 38.026C112.229 38.026 113.698 37.6587 114.897 36.924C116.134 36.1893 117.101 35.2033 117.797 33.966L123.945 36.982C123.326 38.49 122.359 39.824 121.045 40.984C119.73 42.144 118.164 43.0527 116.347 43.71C114.568 44.3673 112.596 44.696 110.431 44.696ZM130.69 44V0.0939983H138.288V44H130.69ZM148.842 56.818C147.991 56.818 147.16 56.7407 146.348 56.586C145.536 56.47 144.801 56.2573 144.144 55.948V49.568C144.646 49.684 145.246 49.8 145.942 49.916C146.676 50.032 147.353 50.09 147.972 50.09C149.712 50.09 150.968 49.684 151.742 48.872C152.554 48.06 153.269 46.9967 153.888 45.682L155.976 40.81L155.86 47.19L142.114 12.448H150.292L159.92 38.084H157.02L166.59 12.448H174.826L161.08 47.19C160.268 49.2393 159.282 50.9793 158.122 52.41C156.962 53.8407 155.608 54.9233 154.062 55.658C152.554 56.4313 150.814 56.818 148.842 56.818ZM175.866 44L186.886 28.166L175.808 12.448H184.74L193.382 25.208H189.38L198.022 12.448H206.896L195.876 28.166L206.838 44H197.964L189.438 31.298H193.324L184.798 44H175.866Z" fill="white"/>
</svg>
